<?xml version="1.0" encoding="UTF-8" standalone="no"?>
<!-- Created with Inkscape (http://www.inkscape.org/) -->

<svg
   xmlns:dc="http://purl.org/dc/elements/1.1/"
   xmlns:cc="http://creativecommons.org/ns#"
   xmlns:rdf="http://www.w3.org/1999/02/22-rdf-syntax-ns#"
   xmlns:svg="http://www.w3.org/2000/svg"
   xmlns="http://www.w3.org/2000/svg"
   xmlns:sodipodi="http://sodipodi.sourceforge.net/DTD/sodipodi-0.dtd"
   xmlns:inkscape="http://www.inkscape.org/namespaces/inkscape"
   width="96"
   height="136"
   id="svg2"
   version="1.1"
   inkscape:version="0.48.4 r9939"
   sodipodi:docname="PixelCharacter2.svg">
  <defs
     id="defs4" />
  <sodipodi:namedview
     id="base"
     pagecolor="#ffffff"
     bordercolor="#666666"
     borderopacity="1.0"
     inkscape:pageopacity="0.0"
     inkscape:pageshadow="2"
     inkscape:zoom="0.7"
     inkscape:cx="110.04314"
     inkscape:cy="129.28838"
     inkscape:document-units="px"
     inkscape:current-layer="layer1"
     showgrid="false"
     inkscape:window-width="1024"
     inkscape:window-height="718"
     inkscape:window-x="-8"
     inkscape:window-y="-8"
     inkscape:window-maximized="1"
     fit-margin-top="0"
     fit-margin-left="0"
     fit-margin-right="0"
     fit-margin-bottom="0" />
  <metadata
     id="metadata7">
    <rdf:RDF>
      <cc:Work
         rdf:about="">
        <dc:format>image/svg+xml</dc:format>
        <dc:type
           rdf:resource="http://purl.org/dc/dcmitype/StillImage" />
        <dc:title></dc:title>
      </cc:Work>
    </rdf:RDF>
  </metadata>
  <g
     inkscape:label="Layer 1"
     inkscape:groupmode="layer"
     id="layer1"
     transform="translate(-245.57143,-204.36218)">
    <rect
       style="fill:#ffffff;fill-opacity:1;stroke:none"
       id="rect4008"
       width="51.07143"
       height="10.357142"
       x="299.64285"
       y="331.29074" />
    <rect
       style="fill:#ffffff;fill-opacity:1;stroke:none"
       id="rect4073"
       width="52.142857"
       height="11.428572"
       x="266.42859"
       y="250.21933" />
    <path
       inkscape:connector-curvature="0"
       id="path3947"
       d="m 277.57143,336.36218 0,-4 -4,0 -4,0 0,-8 0,-8 -8,0 -8,0 0,-4 0,-4 -4,0 -4,0 0,-4 0,-4 4,0 4,0 0,-4 0,-4 4,0 4,0 0,-4 0,-4 4,0 4,0 0,-4 0,-4 -4,0 -4,0 0,-4 0,-4 -4,0 -4,0 0,-4 0,-4 -4,0 -4,0 0,-16 0,-16 4,0 4,0 0,-4 0,-4 4,0 4,0 0,-4 0,-4 8,0 8,0 0,-4 0,-4 20,0 20,0 0,4 0,4 4,0 4,0 0,4 0,4 4,0 4,0 0,4 0,4 4,0 4,0 0,16 0,16 -4,0 -4,0 0,4 0,4 -4,0 -4,0 0,4 0,4 -4,0 -4,0 0,4 0,4 4,0 4,0 0,4 0,4 4,0 4,0 0,4 0,4 4,0 4,0 0,4 0,4 -4,0 -4,0 0,4 0,4 -8,0 -8,0 0,8 0,8 -4,0 -4,0 0,4 0,4 -16,0 -16,0 0,-4 z m 0,-80 0,-4 -4,0 -4,0 0,4 0,4 4,0 4,0 0,-4 z m 40,0 0,-4 -4,0 -4,0 0,4 0,4 4,0 4,0 0,-4 z"
       style="fill:#e0adad" />
    <path
       inkscape:connector-curvature="0"
       id="path3945"
       d="m 277.57143,336.36218 0,-4 -4,0 -4,0 0,-8 0,-8 -8,0 -8,0 0,-4 0,-4 -4,0 -4,0 0,-4 0,-4 4,0 4,0 0,-4 0,-4 4,0 4,0 0,-4 0,-4 4,0 4,0 0,-4 0,-4 -4,0 -4,0 0,-4 0,-4 -4,0 -4,0 0,-4 0,-4 -4,0 -4,0 0,-16 0,-16 4,0 4,0 0,-4 0,-4 4,0 4,0 0,-4 0,-4 8,0 8,0 0,-4 0,-4 20,0 20,0 0,4 0,4 4,0 4,0 0,4 0,4 4,0 4,0 0,4 0,4 4,0 4,0 0,16 0,16 -4,0 -4,0 0,4 0,4 -4,0 -4,0 0,4 0,4 -4,0 -4,0 0,4 0,4 4,0 4,0 0,4 0,4 4,0 4,0 0,4 0,4 4,0 4,0 0,4 0,4 -4,0 -4,0 0,4 0,4 -8,0 -8,0 0,8 0,8 -4,0 -4,0 0,4 0,4 -16,0 -16,0 0,-4 z m -8,-32 0,-4 -8,0 -8,0 0,4 0,4 8,0 8,0 0,-4 z m 64,0 0,-4 -8,0 -8,0 0,4 0,4 8,0 8,0 0,-4 z m -48,-32 0,-4 8,0 8,0 0,4 0,4 4,0 4,0 0,-4 0,-4 4,0 4,0 0,-4 0,-4 4,0 4,0 0,-4 0,-4 -4,0 -4,0 0,-4 0,-4 -4,0 -4,0 0,8 0,8 -4,0 -4,0 0,-8 0,-8 -8,0 -8,0 0,8 0,8 -4,0 -4,0 0,-8 0,-8 -4,0 -4,0 0,4 0,4 -4,0 -4,0 0,4 0,4 4,0 4,0 0,4 0,4 4,0 4,0 0,4 0,4 4,0 4,0 0,-4 z"
       style="fill:#c28f8f" />
    <path
       inkscape:connector-curvature="0"
       id="path3943"
       d="m 277.57143,336.36218 0,-4 -4,0 -4,0 0,-8 0,-8 -8,0 -8,0 0,-4 0,-4 -4,0 -4,0 0,-4 0,-4 4,0 4,0 0,-4 0,-4 4,0 4,0 0,-4 0,-4 4,0 4,0 0,-4 0,-4 -4,0 -4,0 0,-4 0,-4 -4,0 -4,0 0,-4 0,-4 -4,0 -4,0 0,-16 0,-16 4,0 4,0 0,-4 0,-4 4,0 4,0 0,-4 0,-4 8,0 8,0 0,-4 0,-4 20,0 20,0 0,4 0,4 4,0 4,0 0,4 0,4 4,0 4,0 0,4 0,4 4,0 4,0 0,16 0,16 -4,0 -4,0 0,4 0,4 -4,0 -4,0 0,4 0,4 -4,0 -4,0 0,4 0,4 4,0 4,0 0,4 0,4 4,0 4,0 0,4 0,4 4,0 4,0 0,4 0,4 -4,0 -4,0 0,4 0,4 -8,0 -8,0 0,8 0,8 -4,0 -4,0 0,4 0,4 -16,0 -16,0 0,-4 z m -8,-32 0,-4 -8,0 -8,0 0,4 0,4 8,0 8,0 0,-4 z m 64,0 0,-4 -8,0 -8,0 0,4 0,4 8,0 8,0 0,-4 z m -48,-32 0,-4 8,0 8,0 0,4 0,4 8,0 8,0 0,-4 0,-4 4,0 4,0 0,-8 0,-8 -4,0 -4,0 0,-4 0,-4 -4,0 -4,0 0,8 0,8 -4,0 -4,0 0,-8 0,-8 -8,0 -8,0 0,8 0,8 -4,0 -4,0 0,-8 0,-8 -4,0 -4,0 0,4 0,4 -4,0 -4,0 0,8 0,8 4,0 4,0 0,4 0,4 8,0 8,0 0,-4 z"
       style="fill:#ff7f2a" />
    <path
       inkscape:connector-curvature="0"
       id="path3941"
       d="m 277.57143,336.36218 0,-4 -4,0 -4,0 0,-8 0,-8 -8,0 -8,0 0,-4 0,-4 -4,0 -4,0 0,-4 0,-4 4,0 4,0 0,-4 0,-4 4,0 4,0 0,-4 0,-4 4,0 4,0 0,-4 0,-4 -4,0 -4,0 0,-4 0,-4 -4,0 -4,0 0,-4 0,-4 -4,0 -4,0 0,-16 0,-16 4,0 4,0 0,-4 0,-4 4,0 4,0 0,-4 0,-4 8,0 8,0 0,-4 0,-4 20,0 20,0 0,4 0,4 4,0 4,0 0,4 0,4 4,0 4,0 0,4 0,4 4,0 4,0 0,16 0,16 -4,0 -4,0 0,4 0,4 -4,0 -4,0 0,4 0,4 -4,0 -4,0 0,4 0,4 4,0 4,0 0,4 0,4 4,0 4,0 0,4 0,4 4,0 4,0 0,4 0,4 -4,0 -4,0 0,4 0,4 -8,0 -8,0 0,8 0,8 -4,0 -4,0 0,4 0,4 -16,0 -16,0 0,-4 z m -8,-32 0,-4 -8,0 -8,0 0,4 0,4 8,0 8,0 0,-4 z m 64,0 0,-4 -8,0 -8,0 0,4 0,4 8,0 8,0 0,-4 z m -48,-32 0,-4 8,0 8,0 0,4 0,4 8,0 8,0 0,-4 0,-4 4,0 4,0 0,-4 0,-4 4,0 4,0 0,-8 0,-8 -4,0 -4,0 0,-8 0,-8 -8,0 -8,0 0,4 0,4 -4,0 -4,0 0,-4 0,-4 -4,0 -4,0 0,-4 0,-4 -4,0 -4,0 0,4 0,4 -12,0 -12,0 0,8 0,8 -4,0 -4,0 0,8 0,8 4,0 4,0 0,4 0,4 4,0 4,0 0,4 0,4 8,0 8,0 0,-4 z m -8,-16 0,-4 4,0 4,0 0,4 0,4 -4,0 -4,0 0,-4 z m 24,0 0,-4 4,0 4,0 0,4 0,4 -4,0 -4,0 0,-4 z"
       style="fill:#867777" />
    <path
       inkscape:connector-curvature="0"
       id="path3939"
       d="m 277.57143,336.36218 0,-4 -4,0 -4,0 0,-8 0,-8 -8,0 -8,0 0,-4 0,-4 -4,0 -4,0 0,-4 0,-4 4,0 4,0 0,-4 0,-4 4,0 4,0 0,-4 0,-4 4,0 4,0 0,-4 0,-4 -4,0 -4,0 0,-4 0,-4 -4,0 -4,0 0,-4 0,-4 -4,0 -4,0 0,-16 0,-16 4,0 4,0 0,-4 0,-4 4,0 4,0 0,-4 0,-4 8,0 8,0 0,-4 0,-4 20,0 20,0 0,4 0,4 4,0 4,0 0,4 0,4 4,0 4,0 0,4 0,4 4,0 4,0 0,16 0,16 -4,0 -4,0 0,4 0,4 -4,0 -4,0 0,4 0,4 -4,0 -4,0 0,4 0,4 4,0 4,0 0,4 0,4 4,0 4,0 0,4 0,4 4,0 4,0 0,4 0,4 -4,0 -4,0 0,4 0,4 -8,0 -8,0 0,8 0,8 -4,0 -4,0 0,4 0,4 -16,0 -16,0 0,-4 z m -8,-32 0,-4 -8,0 -8,0 0,4 0,4 8,0 8,0 0,-4 z m 64,0 0,-4 -8,0 -8,0 0,4 0,4 8,0 8,0 0,-4 z m -16,-32 0,-4 4,0 4,0 0,-4 0,-4 4,0 4,0 0,-8 0,-8 -4,0 -4,0 0,-8 0,-8 -8,0 -8,0 0,4 0,4 -4,0 -4,0 0,-4 0,-4 -4,0 -4,0 0,-4 0,-4 -4,0 -4,0 0,4 0,4 -12,0 -12,0 0,8 0,8 -4,0 -4,0 0,8 0,8 4,0 4,0 0,4 0,4 4,0 4,0 0,4 0,4 24,0 24,0 0,-4 z m -40,-16 0,-4 4,0 4,0 0,4 0,4 -4,0 -4,0 0,-4 z m 24,0 0,-4 4,0 4,0 0,4 0,4 -4,0 -4,0 0,-4 z"
       style="fill:#2ad4ff" />
    <path
       inkscape:connector-curvature="0"
       id="path3937"
       d="m 277.57143,336.36218 0,-4 -4,0 -4,0 0,-8 0,-8 -8,0 -8,0 0,-4 0,-4 -4,0 -4,0 0,-4 0,-4 4,0 4,0 0,-4 0,-4 4,0 4,0 0,-4 0,-4 4,0 4,0 0,-4 0,-4 -4,0 -4,0 0,-4 0,-4 -4,0 -4,0 0,-4 0,-4 -4,0 -4,0 0,-16 0,-16 4,0 4,0 0,-4 0,-4 4,0 4,0 0,-4 0,-4 8,0 8,0 0,-4 0,-4 20,0 20,0 0,4 0,4 4,0 4,0 0,4 0,4 4,0 4,0 0,4 0,4 4,0 4,0 0,16 0,16 -4,0 -4,0 0,4 0,4 -4,0 -4,0 0,4 0,4 -4,0 -4,0 0,4 0,4 4,0 4,0 0,4 0,4 4,0 4,0 0,4 0,4 4,0 4,0 0,4 0,4 -4,0 -4,0 0,4 0,4 -8,0 -8,0 0,8 0,8 -4,0 -4,0 0,4 0,4 -16,0 -16,0 0,-4 z m -8,-32 0,-4 -8,0 -8,0 0,4 0,4 8,0 8,0 0,-4 z m 64,0 0,-4 -8,0 -8,0 0,4 0,4 8,0 8,0 0,-4 z m -24,-16 0,-4 -16,0 -16,0 0,4 0,4 16,0 16,0 0,-4 z m 8,-16 0,-4 4,0 4,0 0,-4 0,-4 4,0 4,0 0,-8 0,-8 -4,0 -4,0 0,-8 0,-8 -8,0 -8,0 0,4 0,4 -4,0 -4,0 0,-4 0,-4 -4,0 -4,0 0,-4 0,-4 -4,0 -4,0 0,4 0,4 -12,0 -12,0 0,8 0,8 -4,0 -4,0 0,8 0,8 4,0 4,0 0,4 0,4 4,0 4,0 0,4 0,4 24,0 24,0 0,-4 z m -40,-16 0,-4 4,0 4,0 0,4 0,4 -4,0 -4,0 0,-4 z m 24,0 0,-4 4,0 4,0 0,4 0,4 -4,0 -4,0 0,-4 z"
       style="fill:#c87137" />
    <path
       inkscape:connector-curvature="0"
       id="path3935"
       d="m 277.57143,336.36218 0,-4 -4,0 -4,0 0,-8 0,-8 -8,0 -8,0 0,-4 0,-4 -4,0 -4,0 0,-4 0,-4 4,0 4,0 0,-4 0,-4 4,0 4,0 0,-4 0,-4 4,0 4,0 0,-4 0,-4 -4,0 -4,0 0,-4 0,-4 -4,0 -4,0 0,-4 0,-4 -4,0 -4,0 0,-16 0,-16 4,0 4,0 0,-4 0,-4 4,0 4,0 0,-4 0,-4 8,0 8,0 0,-4 0,-4 20,0 20,0 0,4 0,4 4,0 4,0 0,4 0,4 4,0 4,0 0,4 0,4 4,0 4,0 0,16 0,16 -4,0 -4,0 0,4 0,4 -4,0 -4,0 0,4 0,4 -4,0 -4,0 0,4 0,4 4,0 4,0 0,4 0,4 4,0 4,0 0,4 0,4 4,0 4,0 0,4 0,4 -4,0 -4,0 0,4 0,4 -8,0 -8,0 0,8 0,8 -4,0 -4,0 0,4 0,4 -16,0 -16,0 0,-4 z m -8,-32 0,-4 -8,0 -8,0 0,4 0,4 8,0 8,0 0,-4 z m 64,0 0,-4 -8,0 -8,0 0,4 0,4 8,0 8,0 0,-4 z m -24,-16 0,-4 -16,0 -16,0 0,4 0,4 16,0 16,0 0,-4 z m 8,-16 0,-4 4,0 4,0 0,-4 0,-4 4,0 4,0 0,-16 0,-16 -8,0 -8,0 0,-4 0,-4 -4,0 -4,0 0,-4 0,-4 -12,0 -12,0 0,4 0,4 -8,0 -8,0 0,4 0,4 -4,0 -4,0 0,4 0,4 -4,0 -4,0 0,12 0,12 4,0 4,0 0,4 0,4 4,0 4,0 0,4 0,4 24,0 24,0 0,-4 z m -40,-16 0,-4 4,0 4,0 0,4 0,4 -4,0 -4,0 0,-4 z m 24,0 0,-4 4,0 4,0 0,4 0,4 -4,0 -4,0 0,-4 z"
       style="fill:#0088aa" />
    <path
       inkscape:connector-curvature="0"
       id="path3933"
       d="m 277.57143,336.36218 0,-4 -4,0 -4,0 0,-8 0,-8 -8,0 -8,0 0,-4 0,-4 -4,0 -4,0 0,-4 0,-4 4,0 4,0 0,-4 0,-4 4,0 4,0 0,-4 0,-4 4,0 4,0 0,-4 0,-4 -4,0 -4,0 0,-4 0,-4 -4,0 -4,0 0,-4 0,-4 -4,0 -4,0 0,-16 0,-16 4,0 4,0 0,-4 0,-4 4,0 4,0 0,-4 0,-4 8,0 8,0 0,-4 0,-4 20,0 20,0 0,4 0,4 4,0 4,0 0,4 0,4 4,0 4,0 0,4 0,4 4,0 4,0 0,16 0,16 -4,0 -4,0 0,4 0,4 -4,0 -4,0 0,4 0,4 -4,0 -4,0 0,4 0,4 4,0 4,0 0,4 0,4 4,0 4,0 0,4 0,4 4,0 4,0 0,4 0,4 -4,0 -4,0 0,4 0,4 -8,0 -8,0 0,8 0,8 -4,0 -4,0 0,4 0,4 -16,0 -16,0 0,-4 z m -8,-32 0,-4 8,0 8,0 0,4 0,4 8,0 8,0 0,-4 0,-4 8,0 8,0 0,4 0,4 8,0 8,0 0,-4 0,-4 -8,0 -8,0 0,-4 0,-4 -4,0 -4,0 0,-4 0,-4 -16,0 -16,0 0,4 0,4 -4,0 -4,0 0,4 0,4 -8,0 -8,0 0,4 0,4 8,0 8,0 0,-4 z m 48,-32 0,-4 4,0 4,0 0,-4 0,-4 4,0 4,0 0,-16 0,-16 -8,0 -8,0 0,-4 0,-4 -4,0 -4,0 0,-4 0,-4 -12,0 -12,0 0,4 0,4 -8,0 -8,0 0,4 0,4 -4,0 -4,0 0,4 0,4 -4,0 -4,0 0,12 0,12 4,0 4,0 0,4 0,4 4,0 4,0 0,4 0,4 24,0 24,0 0,-4 z m -40,-16 0,-4 4,0 4,0 0,4 0,4 -4,0 -4,0 0,-4 z m 24,0 0,-4 4,0 4,0 0,4 0,4 -4,0 -4,0 0,-4 z"
       style="fill:#8d0f27" />
    <path
       inkscape:connector-curvature="0"
       id="path3931"
       d="m 277.57143,336.36218 0,-4 -4,0 -4,0 0,-8 0,-8 -8,0 -8,0 0,-4 0,-4 -4,0 -4,0 0,-4 0,-4 4,0 4,0 0,-4 0,-4 4,0 4,0 0,-4 0,-4 4,0 4,0 0,-4 0,-4 -4,0 -4,0 0,-4 0,-4 -4,0 -4,0 0,-4 0,-4 -4,0 -4,0 0,-16 0,-16 4,0 4,0 0,-4 0,-4 4,0 4,0 0,-4 0,-4 8,0 8,0 0,-4 0,-4 20,0 20,0 0,4 0,4 4,0 4,0 0,4 0,4 4,0 4,0 0,4 0,4 4,0 4,0 0,16 0,16 -4,0 -4,0 0,4 0,4 -4,0 -4,0 0,4 0,4 -4,0 -4,0 0,4 0,4 4,0 4,0 0,4 0,4 4,0 4,0 0,4 0,4 4,0 4,0 0,4 0,4 -4,0 -4,0 0,4 0,4 -8,0 -8,0 0,8 0,8 -4,0 -4,0 0,4 0,4 -16,0 -16,0 0,-4 z m -8,-32 0,-4 8,0 8,0 0,4 0,4 8,0 8,0 0,-4 0,-4 8,0 8,0 0,4 0,4 8,0 8,0 0,-4 0,-4 -8,0 -8,0 0,-4 0,-4 -4,0 -4,0 0,-4 0,-4 -16,0 -16,0 0,4 0,4 -4,0 -4,0 0,4 0,4 -8,0 -8,0 0,4 0,4 8,0 8,0 0,-4 z m 48,-32 0,-4 4,0 4,0 0,-4 0,-4 4,0 4,0 0,-16 0,-16 -8,0 -8,0 0,-4 0,-4 -4,0 -4,0 0,-4 0,-4 -12,0 -12,0 0,4 0,4 -8,0 -8,0 0,4 0,4 -4,0 -4,0 0,4 0,4 -4,0 -4,0 0,12 0,12 4,0 4,0 0,4 0,4 4,0 4,0 0,4 0,4 24,0 24,0 0,-4 z"
       style="fill:#3b3b3b" />
    <path
       inkscape:connector-curvature="0"
       id="path3929"
       d="m 277.57143,336.36218 0,-4 -4,0 -4,0 0,-8 0,-8 -8,0 -8,0 0,-4 0,-4 -4,0 -4,0 0,-4 0,-4 4,0 4,0 0,-4 0,-4 4,0 4,0 0,-4 0,-4 4,0 4,0 0,-4 0,-4 -4,0 -4,0 0,-4 0,-4 -4,0 -4,0 0,-4 0,-4 -4,0 -4,0 0,-16 0,-16 4,0 4,0 0,-4 0,-4 4,0 4,0 0,-4 0,-4 8,0 8,0 0,-4 0,-4 20,0 20,0 0,4 0,4 4,0 4,0 0,4 0,4 4,0 4,0 0,4 0,4 4,0 4,0 0,16 0,16 -4,0 -4,0 0,4 0,4 -4,0 -4,0 0,4 0,4 -4,0 -4,0 0,4 0,4 4,0 4,0 0,4 0,4 4,0 4,0 0,4 0,4 4,0 4,0 0,4 0,4 -4,0 -4,0 0,4 0,4 -8,0 -8,0 0,8 0,8 -4,0 -4,0 0,4 0,4 -16,0 -16,0 0,-4 z m 32,-16 0,-4 -4,0 -4,0 0,-8 0,-8 8,0 8,0 0,4 0,4 8,0 8,0 0,-4 0,-4 -8,0 -8,0 0,-4 0,-4 -4,0 -4,0 0,-4 0,-4 -16,0 -16,0 0,4 0,4 -4,0 -4,0 0,4 0,4 -8,0 -8,0 0,4 0,4 8,0 8,0 0,-4 0,-4 8,0 8,0 0,8 0,8 -4,0 -4,0 0,4 0,4 16,0 16,0 0,-4 z m 8,-48 0,-4 4,0 4,0 0,-4 0,-4 4,0 4,0 0,-16 0,-16 -8,0 -8,0 0,-4 0,-4 -4,0 -4,0 0,-4 0,-4 -12,0 -12,0 0,4 0,4 -8,0 -8,0 0,4 0,4 -4,0 -4,0 0,4 0,4 -4,0 -4,0 0,12 0,12 4,0 4,0 0,4 0,4 4,0 4,0 0,4 0,4 24,0 24,0 0,-4 z"
       style="fill:#552200" />
    <path
       inkscape:connector-curvature="0"
       id="path3927"
       d="m 277.57143,336.36218 0,-4 -4,0 -4,0 0,-8 0,-8 -8,0 -8,0 0,-4 0,-4 -4,0 -4,0 0,-4 0,-4 4,0 4,0 0,-4 0,-4 4,0 4,0 0,-4 0,-4 4,0 4,0 0,-4 0,-4 -4,0 -4,0 0,-4 0,-4 -4,0 -4,0 0,-4 0,-4 -4,0 -4,0 0,-16 0,-16 4,0 4,0 0,-4 0,-4 4,0 4,0 0,-4 0,-4 8,0 8,0 0,-4 0,-4 20,0 20,0 0,4 0,4 4,0 4,0 0,4 0,4 4,0 4,0 0,4 0,4 4,0 4,0 0,16 0,16 -4,0 -4,0 0,4 0,4 -4,0 -4,0 0,4 0,4 -4,0 -4,0 0,4 0,4 4,0 4,0 0,4 0,4 4,0 4,0 0,4 0,4 4,0 4,0 0,4 0,4 -4,0 -4,0 0,4 0,4 -8,0 -8,0 0,8 0,8 -4,0 -4,0 0,4 0,4 -16,0 -16,0 0,-4 z m 32,-16 0,-4 -4,0 -4,0 0,-8 0,-8 8,0 8,0 0,4 0,4 8,0 8,0 0,-4 0,-4 -8,0 -8,0 0,-4 0,-4 -4,0 -4,0 0,-4 0,-4 -16,0 -16,0 0,4 0,4 -4,0 -4,0 0,4 0,4 -8,0 -8,0 0,4 0,4 8,0 8,0 0,-4 0,-4 8,0 8,0 0,8 0,8 -4,0 -4,0 0,4 0,4 16,0 16,0 0,-4 z m 8,-48 0,-4 4,0 4,0 0,-4 0,-4 4,0 4,0 0,-16 0,-16 -4,0 -4,0 0,-4 0,-4 -4,0 -4,0 0,-4 0,-4 -20,0 -20,0 0,4 0,4 -8,0 -8,0 0,4 0,4 -4,0 -4,0 0,16 0,16 4,0 4,0 0,4 0,4 4,0 4,0 0,4 0,4 24,0 24,0 0,-4 z"
       style="fill:#004455" />
    <path
       inkscape:connector-curvature="0"
       id="path3925"
       d="m 277.57143,336.36218 0,-4 -4,0 -4,0 0,-8 0,-8 -8,0 -8,0 0,-4 0,-4 -4,0 -4,0 0,-4 0,-4 4,0 4,0 0,-4 0,-4 4,0 4,0 0,-4 0,-4 4,0 4,0 0,-4 0,-4 -4,0 -4,0 0,-4 0,-4 -4,0 -4,0 0,-4 0,-4 -4,0 -4,0 0,-16 0,-16 4,0 4,0 0,-4 0,-4 4,0 4,0 0,-4 0,-4 8,0 8,0 0,-4 0,-4 20,0 20,0 0,4 0,4 4,0 4,0 0,4 0,4 4,0 4,0 0,4 0,4 4,0 4,0 0,16 0,16 -4,0 -4,0 0,4 0,4 -4,0 -4,0 0,4 0,4 -4,0 -4,0 0,4 0,4 4,0 4,0 0,4 0,4 4,0 4,0 0,4 0,4 4,0 4,0 0,4 0,4 -4,0 -4,0 0,4 0,4 -8,0 -8,0 0,8 0,8 -4,0 -4,0 0,4 0,4 -16,0 -16,0 0,-4 z m 32,-16 0,-4 -4,0 -4,0 0,-4 0,-4 4,0 4,0 0,-4 0,-4 4,0 4,0 0,4 0,4 8,0 8,0 0,-4 0,-4 -4,0 -4,0 0,-4 0,-4 -8,0 -8,0 0,-4 0,-4 -16,0 -16,0 0,4 0,4 -8,0 -8,0 0,4 0,4 -4,0 -4,0 0,4 0,4 8,0 8,0 0,-4 0,-4 4,0 4,0 0,4 0,4 4,0 4,0 0,4 0,4 -4,0 -4,0 0,4 0,4 16,0 16,0 0,-4 z m 8,-48 0,-4 4,0 4,0 0,-4 0,-4 4,0 4,0 0,-16 0,-16 -4,0 -4,0 0,-4 0,-4 -4,0 -4,0 0,-4 0,-4 -20,0 -20,0 0,4 0,4 -8,0 -8,0 0,4 0,4 -4,0 -4,0 0,16 0,16 4,0 4,0 0,4 0,4 4,0 4,0 0,4 0,4 24,0 24,0 0,-4 z"
       style="fill:#5c320e" />
    <path
       inkscape:connector-curvature="0"
       id="path3923"
       d="m 277.57143,336.36218 0,-4 -4,0 -4,0 0,-8 0,-8 -8,0 -8,0 0,-4 0,-4 -4,0 -4,0 0,-4 0,-4 4,0 4,0 0,-4 0,-4 4,0 4,0 0,-4 0,-4 4,0 4,0 0,-4 0,-4 -4,0 -4,0 0,-4 0,-4 -4,0 -4,0 0,-4 0,-4 -4,0 -4,0 0,-16 0,-16 4,0 4,0 0,-4 0,-4 4,0 4,0 0,-4 0,-4 8,0 8,0 0,-4 0,-4 20,0 20,0 0,4 0,4 4,0 4,0 0,4 0,4 4,0 4,0 0,4 0,4 4,0 4,0 0,16 0,16 -4,0 -4,0 0,4 0,4 -4,0 -4,0 0,4 0,4 -4,0 -4,0 0,4 0,4 4,0 4,0 0,4 0,4 4,0 4,0 0,4 0,4 4,0 4,0 0,4 0,4 -4,0 -4,0 0,4 0,4 -8,0 -8,0 0,8 0,8 -4,0 -4,0 0,4 0,4 -16,0 -16,0 0,-4 z m 8,-8 0,-4 8,0 8,0 0,4 0,4 4,0 4,0 0,-8 0,-8 -4,0 -4,0 0,-4 0,-4 4,0 4,0 0,-4 0,-4 4,0 4,0 0,4 0,4 8,0 8,0 0,-4 0,-4 -4,0 -4,0 0,-4 0,-4 -8,0 -8,0 0,-4 0,-4 -16,0 -16,0 0,4 0,4 -8,0 -8,0 0,4 0,4 -4,0 -4,0 0,4 0,4 8,0 8,0 0,-4 0,-4 4,0 4,0 0,4 0,4 4,0 4,0 0,4 0,4 -4,0 -4,0 0,8 0,8 4,0 4,0 0,-4 z m 32,-56 0,-4 4,0 4,0 0,-4 0,-4 4,0 4,0 0,-16 0,-16 -4,0 -4,0 0,-4 0,-4 -4,0 -4,0 0,-4 0,-4 -20,0 -20,0 0,4 0,4 -8,0 -8,0 0,4 0,4 -4,0 -4,0 0,16 0,16 4,0 4,0 0,4 0,4 4,0 4,0 0,4 0,4 24,0 24,0 0,-4 z"
       style="fill:#1d1d1d" />
    <path
       inkscape:connector-curvature="0"
       id="path3921"
       d="m 277.57143,336.36218 0,-4 -4,0 -4,0 0,-8 0,-8 -8,0 -8,0 0,-4 0,-4 -4,0 -4,0 0,-4 0,-4 4,0 4,0 0,-4 0,-4 4,0 4,0 0,-4 0,-4 4,0 4,0 0,-4 0,-4 -4,0 -4,0 0,-4 0,-4 -4,0 -4,0 0,-4 0,-4 -4,0 -4,0 0,-16 0,-16 4,0 4,0 0,-4 0,-4 4,0 4,0 0,-4 0,-4 8,0 8,0 0,-4 0,-4 20,0 20,0 0,4 0,4 4,0 4,0 0,4 0,4 4,0 4,0 0,4 0,4 4,0 4,0 0,16 0,16 -4,0 -4,0 0,4 0,4 -4,0 -4,0 0,4 0,4 -4,0 -4,0 0,4 0,4 4,0 4,0 0,4 0,4 4,0 4,0 0,4 0,4 4,0 4,0 0,4 0,4 -4,0 -4,0 0,4 0,4 -8,0 -8,0 0,8 0,8 -4,0 -4,0 0,4 0,4 -16,0 -16,0 0,-4 z m 8,-8 0,-4 8,0 8,0 0,4 0,4 4,0 4,0 0,-16 0,-16 4,0 4,0 0,4 0,4 8,0 8,0 0,-4 0,-4 -4,0 -4,0 0,-4 0,-4 -8,0 -8,0 0,-4 0,-4 -16,0 -16,0 0,4 0,4 -8,0 -8,0 0,4 0,4 -4,0 -4,0 0,4 0,4 8,0 8,0 0,-4 0,-4 4,0 4,0 0,16 0,16 4,0 4,0 0,-4 z m 32,-56 0,-4 4,0 4,0 0,-4 0,-4 4,0 4,0 0,-16 0,-16 -4,0 -4,0 0,-4 0,-4 -4,0 -4,0 0,-4 0,-4 -20,0 -20,0 0,4 0,4 -8,0 -8,0 0,4 0,4 -4,0 -4,0 0,16 0,16 4,0 4,0 0,4 0,4 4,0 4,0 0,4 0,4 24,0 24,0 0,-4 z"
       style="fill:#3e1400" />
    <path
       inkscape:connector-curvature="0"
       id="path3919"
       d="m 277.57143,336.36218 0,-4 -4,0 -4,0 0,-8 0,-8 -8,0 -8,0 0,-4 0,-4 -4,0 -4,0 0,-4 0,-4 4,0 4,0 0,-4 0,-4 4,0 4,0 0,-4 0,-4 4,0 4,0 0,-4 0,-4 -4,0 -4,0 0,-4 0,-4 -4,0 -4,0 0,-4 0,-4 -4,0 -4,0 0,-16 0,-16 4,0 4,0 0,-4 0,-4 4,0 4,0 0,-4 0,-4 8,0 8,0 0,-4 0,-4 20,0 20,0 0,4 0,4 4,0 4,0 0,4 0,4 4,0 4,0 0,4 0,4 4,0 4,0 0,16 0,16 -4,0 -4,0 0,4 0,4 -4,0 -4,0 0,4 0,4 -4,0 -4,0 0,4 0,4 4,0 4,0 0,4 0,4 4,0 4,0 0,4 0,4 4,0 4,0 0,4 0,4 -4,0 -4,0 0,4 0,4 -8,0 -8,0 0,8 0,8 -4,0 -4,0 0,4 0,4 -16,0 -16,0 0,-4 z m 32,-20 0,-16 4,0 4,0 0,4 0,4 8,0 8,0 0,-4 0,-4 -4,0 -4,0 0,-4 0,-4 -8,0 -8,0 0,-4 0,-4 -16,0 -16,0 0,4 0,4 -8,0 -8,0 0,4 0,4 -4,0 -4,0 0,4 0,4 8,0 8,0 0,-4 0,-4 4,0 4,0 0,16 0,16 16,0 16,0 0,-16 z m 8,-44 0,-4 4,0 4,0 0,-4 0,-4 4,0 4,0 0,-16 0,-16 -4,0 -4,0 0,-4 0,-4 -4,0 -4,0 0,-4 0,-4 -20,0 -20,0 0,4 0,4 -8,0 -8,0 0,4 0,4 -4,0 -4,0 0,16 0,16 4,0 4,0 0,4 0,4 4,0 4,0 0,4 0,4 24,0 24,0 0,-4 z"
       style="fill:#000000" />
  </g>
</svg>
