<?xml version="1.0" encoding="UTF-8" standalone="no"?>
<!-- Created with Inkscape (http://www.inkscape.org/) -->

<svg
   xmlns:dc="http://purl.org/dc/elements/1.1/"
   xmlns:cc="http://creativecommons.org/ns#"
   xmlns:rdf="http://www.w3.org/1999/02/22-rdf-syntax-ns#"
   xmlns:svg="http://www.w3.org/2000/svg"
   xmlns="http://www.w3.org/2000/svg"
   version="1.1"
   width="48"
   height="56"
   id="svg2">
  <defs
     id="defs4" />
  <metadata
     id="metadata7">
    <rdf:RDF>
      <cc:Work
         rdf:about="">
        <dc:format>image/svg+xml</dc:format>
        <dc:type
           rdf:resource="http://purl.org/dc/dcmitype/StillImage" />
        <dc:title></dc:title>
      </cc:Work>
    </rdf:RDF>
  </metadata>
  <g
     transform="translate(-140.21429,-387.75505)"
     id="layer1">
    <g
       transform="translate(-65.357143,-5.1785714)"
       id="g3135">
      <path
         d="m 229.57143,448.93362 -12,0 0,-2 0,-2 -2,0 -2,0 0,-2 0,-2 -2,0 -2,0 0,-2 0,-2 -2,0 -2,0 0,-6 0,-6 2,0 2,0 0,-2 0,-2 2,0 2,0 0,-2 0,-2 2,0 2,0 0,-6 0,-6 -2,0 -2,0 0,-2 0,-2 2,0 2,0 0,-2 0,-2 2,0 2,0 0,-2 0,-2 8,0 8,0 0,2 0,2 2,0 2,0 0,2 0,2 2,0 2,0 0,2 0,2 -2,0 -2,0 0,6 0,6 2,0 2,0 0,2 0,2 2,0 2,0 0,2 0,2 2,0 2,0 0,6 0,6 -2,0 -2,0 0,2 0,2 -2,0 -2,0 0,2 0,2 -2,0 -2,0 0,2 0,2 -12,0 z"
         id="path3153"
         style="fill:#9edee8" />
      <path
         d="m 229.57143,448.93362 -12,0 0,-2 0,-2 -2,0 -2,0 0,-2 0,-2 -2,0 -2,0 0,-2 0,-2 -2,0 -2,0 0,-6 0,-6 2,0 2,0 0,-2 0,-2 2,0 2,0 0,-2 0,-2 2,0 2,0 0,-6 0,-6 -2,0 -2,0 0,-2 0,-2 2,0 2,0 0,-2 0,-2 2,0 2,0 0,-2 0,-2 8,0 8,0 0,2 0,2 2,0 2,0 0,2 0,2 2,0 2,0 0,2 0,2 -2,0 -2,0 0,6 0,6 2,0 2,0 0,2 0,2 2,0 2,0 0,2 0,2 2,0 2,0 0,6 0,6 -2,0 -2,0 0,2 0,2 -2,0 -2,0 0,2 0,2 -2,0 -2,0 0,2 0,2 -12,0 z m 0,-4 12,0 0,-2 0,-2 2,0 2,0 0,-2 0,-2 2,0 2,0 0,-6 0,-6 -2,0 -2,0 0,-2 0,-2 -2,0 -2,0 0,-2 0,-2 -2,0 -2,0 0,-6 0,-6 2,0 2,0 0,-2 0,-2 -2,0 -2,0 0,2 0,2 -2,0 -2,0 0,6 0,6 2,0 2,0 0,2 0,2 2,0 2,0 0,2 0,2 2,0 2,0 0,6 0,6 -2,0 -2,0 0,2 0,2 -12,0 -12,0 0,-2 0,-2 -2,0 -2,0 0,-6 0,-6 2,0 2,0 0,-2 0,-2 2,0 2,0 0,-2 0,-2 2,0 2,0 0,-6 0,-6 -2,0 -2,0 0,-2 0,-2 -2,0 -2,0 0,2 0,2 2,0 2,0 0,6 0,6 -2,0 -2,0 0,2 0,2 -2,0 -2,0 0,2 0,2 -2,0 -2,0 0,6 0,6 2,0 2,0 0,2 0,2 2,0 2,0 0,2 0,2 12,0 z"
         id="path3151"
         style="fill:#d7d1b3" />
      <path
         d="m 229.57143,448.93362 -12,0 0,-2 0,-2 -2,0 -2,0 0,-2 0,-2 -2,0 -2,0 0,-2 0,-2 -2,0 -2,0 0,-6 0,-6 2,0 2,0 0,-2 0,-2 2,0 2,0 0,-2 0,-2 2,0 2,0 0,-6 0,-6 -2,0 -2,0 0,-2 0,-2 2,0 2,0 0,-2 0,-2 2,0 2,0 0,-2 0,-2 8,0 8,0 0,2 0,2 2,0 2,0 0,2 0,2 2,0 2,0 0,2 0,2 -2,0 -2,0 0,6 0,6 2,0 2,0 0,2 0,2 2,0 2,0 0,2 0,2 2,0 2,0 0,6 0,6 -2,0 -2,0 0,2 0,2 -2,0 -2,0 0,2 0,2 -2,0 -2,0 0,2 0,2 -12,0 z m 0,-4 12,0 0,-2 0,-2 2,0 2,0 0,-2 0,-2 2,0 2,0 0,-6 0,-6 -2,0 -2,0 0,-2 0,-2 -2,0 -2,0 0,-2 0,-2 -2,0 -2,0 0,-6 0,-6 2,0 2,0 0,-2 0,-2 -2,0 -2,0 0,2 0,2 -2,0 -2,0 0,6 0,6 2,0 2,0 0,2 0,2 2,0 2,0 0,2 0,2 2,0 2,0 0,6 0,6 -2,0 -2,0 0,2 0,2 -12,0 -12,0 0,-2 0,-2 -2,0 -2,0 0,-6 0,-6 2,0 2,0 0,-2 0,-2 2,0 2,0 0,-2 0,-2 2,0 2,0 0,-6 0,-6 -2,0 -2,0 0,-2 0,-2 2,0 2,0 0,-2 0,-2 -2,0 -2,0 0,2 0,2 -2,0 -2,0 0,2 0,2 2,0 2,0 0,6 0,6 -2,0 -2,0 0,2 0,2 -2,0 -2,0 0,2 0,2 -2,0 -2,0 0,6 0,6 2,0 2,0 0,2 0,2 2,0 2,0 0,2 0,2 12,0 z"
         id="path3149"
         style="fill:#b9b395" />
      <path
         d="m 229.57143,448.93362 -12,0 0,-2 0,-2 -2,0 -2,0 0,-2 0,-2 -2,0 -2,0 0,-2 0,-2 -2,0 -2,0 0,-6 0,-6 2,0 2,0 0,-2 0,-2 2,0 2,0 0,-2 0,-2 2,0 2,0 0,-6 0,-6 -2,0 -2,0 0,-2 0,-2 2,0 2,0 0,-2 0,-2 2,0 2,0 0,-2 0,-2 8,0 8,0 0,2 0,2 2,0 2,0 0,2 0,2 2,0 2,0 0,2 0,2 -2,0 -2,0 0,6 0,6 2,0 2,0 0,2 0,2 2,0 2,0 0,2 0,2 2,0 2,0 0,6 0,6 -2,0 -2,0 0,2 0,2 -2,0 -2,0 0,2 0,2 -2,0 -2,0 0,2 0,2 -12,0 z m 0,-4 12,0 0,-2 0,-2 2,0 2,0 0,-2 0,-2 2,0 2,0 0,-6 0,-6 -2,0 -2,0 0,-2 0,-2 -2,0 -2,0 0,-2 0,-2 -2,0 -2,0 0,-6 0,-6 2,0 2,0 0,-2 0,-2 -2,0 -2,0 0,2 0,2 -2,0 -2,0 0,6 0,6 2,0 2,0 0,2 0,2 2,0 2,0 0,2 0,2 2,0 2,0 0,6 0,6 -2,0 -2,0 0,2 0,2 -12,0 -12,0 0,-2 0,-2 -2,0 -2,0 0,-6 0,-6 2,0 2,0 0,-2 0,-2 2,0 2,0 0,-2 0,-2 2,0 2,0 0,-8 0,-8 2,0 2,0 0,-2 0,-2 -4,0 -4,0 0,2 0,2 -2,0 -2,0 0,2 0,2 2,0 2,0 0,6 0,6 -2,0 -2,0 0,2 0,2 -2,0 -2,0 0,2 0,2 -2,0 -2,0 0,6 0,6 2,0 2,0 0,2 0,2 2,0 2,0 0,2 0,2 12,0 z"
         id="path3147"
         style="fill:#5083fe" />
      <path
         d="m 229.57143,448.93362 -12,0 0,-2 0,-2 -2,0 -2,0 0,-2 0,-2 -2,0 -2,0 0,-2 0,-2 -2,0 -2,0 0,-6 0,-6 2,0 2,0 0,-2 0,-2 2,0 2,0 0,-2 0,-2 2,0 2,0 0,-6 0,-6 -2,0 -2,0 0,-2 0,-2 2,0 2,0 0,-2 0,-2 2,0 2,0 0,-2 0,-2 8,0 8,0 0,2 0,2 2,0 2,0 0,2 0,2 2,0 2,0 0,2 0,2 -2,0 -2,0 0,6 0,6 2,0 2,0 0,2 0,2 2,0 2,0 0,2 0,2 2,0 2,0 0,6 0,6 -2,0 -2,0 0,2 0,2 -2,0 -2,0 0,2 0,2 -2,0 -2,0 0,2 0,2 -12,0 z m 0,-4 12,0 0,-2 0,-2 2,0 2,0 0,-2 0,-2 2,0 2,0 0,-6 0,-6 -2,0 -2,0 0,-2 0,-2 -2,0 -2,0 0,-2 0,-2 -2,0 -2,0 0,-6 0,-6 2,0 2,0 0,-2 0,-2 -2,0 -2,0 0,2 0,2 -2,0 -2,0 0,6 0,6 2,0 2,0 0,2 0,2 -8,0 -8,0 0,-2 0,-2 2,0 2,0 0,-8 0,-8 2,0 2,0 0,-2 0,-2 -4,0 -4,0 0,2 0,2 -2,0 -2,0 0,2 0,2 2,0 2,0 0,6 0,6 -2,0 -2,0 0,2 0,2 -2,0 -2,0 0,2 0,2 -2,0 -2,0 0,6 0,6 2,0 2,0 0,2 0,2 2,0 2,0 0,2 0,2 12,0 z m 0,-4 -12,0 0,-2 0,-2 -2,0 -2,0 0,-6 0,-6 4,0 4,0 0,2 0,2 8,0 8,0 0,-2 0,-2 4,0 4,0 0,6 0,6 -2,0 -2,0 0,2 0,2 -12,0 z"
         id="path3145"
         style="fill:#9b9577" />
      <path
         d="m 229.57143,448.93362 -12,0 0,-2 0,-2 -2,0 -2,0 0,-2 0,-2 -2,0 -2,0 0,-2 0,-2 -2,0 -2,0 0,-6 0,-6 2,0 2,0 0,-2 0,-2 2,0 2,0 0,-2 0,-2 2,0 2,0 0,-6 0,-6 -2,0 -2,0 0,-2 0,-2 2,0 2,0 0,-2 0,-2 2,0 2,0 0,-2 0,-2 8,0 8,0 0,2 0,2 2,0 2,0 0,2 0,2 2,0 2,0 0,2 0,2 -2,0 -2,0 0,6 0,6 2,0 2,0 0,2 0,2 2,0 2,0 0,2 0,2 2,0 2,0 0,6 0,6 -2,0 -2,0 0,2 0,2 -2,0 -2,0 0,2 0,2 -2,0 -2,0 0,2 0,2 -12,0 z m 0,-4 12,0 0,-2 0,-2 2,0 2,0 0,-2 0,-2 2,0 2,0 0,-6 0,-6 -2,0 -2,0 0,-2 0,-2 -2,0 -2,0 0,-2 0,-2 -2,0 -2,0 0,-6 0,-6 2,0 2,0 0,-2 0,-2 -2,0 -2,0 0,2 0,2 -2,0 -2,0 0,6 0,6 2,0 2,0 0,2 0,2 -8,0 -8,0 0,-2 0,-2 2,0 2,0 0,-6 0,-6 2,0 2,0 0,-2 0,-2 2,0 2,0 0,-2 0,-2 -6,0 -6,0 0,2 0,2 -2,0 -2,0 0,2 0,2 2,0 2,0 0,6 0,6 -2,0 -2,0 0,2 0,2 -2,0 -2,0 0,2 0,2 -2,0 -2,0 0,6 0,6 2,0 2,0 0,2 0,2 2,0 2,0 0,2 0,2 12,0 z m 0,-4 -12,0 0,-2 0,-2 -2,0 -2,0 0,-6 0,-6 4,0 4,0 0,2 0,2 8,0 8,0 0,-2 0,-2 4,0 4,0 0,6 0,6 -2,0 -2,0 0,2 0,2 -12,0 z"
         id="path3143"
         style="fill:#7d7759" />
      <path
         d="m 229.57143,448.93362 -12,0 0,-2 0,-2 -2,0 -2,0 0,-2 0,-2 -2,0 -2,0 0,-2 0,-2 -2,0 -2,0 0,-6 0,-6 2,0 2,0 0,-2 0,-2 2,0 2,0 0,-2 0,-2 2,0 2,0 0,-6 0,-6 -2,0 -2,0 0,-2 0,-2 2,0 2,0 0,-2 0,-2 2,0 2,0 0,-2 0,-2 8,0 8,0 0,2 0,2 2,0 2,0 0,2 0,2 2,0 2,0 0,2 0,2 -2,0 -2,0 0,6 0,6 2,0 2,0 0,2 0,2 2,0 2,0 0,2 0,2 2,0 2,0 0,6 0,6 -2,0 -2,0 0,2 0,2 -2,0 -2,0 0,2 0,2 -2,0 -2,0 0,2 0,2 -12,0 z m 0,-4 12,0 0,-2 0,-2 2,0 2,0 0,-2 0,-2 2,0 2,0 0,-6 0,-6 -2,0 -2,0 0,-2 0,-2 -2,0 -2,0 0,-2 0,-2 -2,0 -2,0 0,-6 0,-6 2,0 2,0 0,-2 0,-2 -2,0 -2,0 0,-2 0,-2 -8,0 -8,0 0,2 0,2 -2,0 -2,0 0,2 0,2 2,0 2,0 0,6 0,6 -2,0 -2,0 0,2 0,2 -2,0 -2,0 0,2 0,2 -2,0 -2,0 0,6 0,6 2,0 2,0 0,2 0,2 2,0 2,0 0,2 0,2 12,0 z m 0,-4 -12,0 0,-2 0,-2 -2,0 -2,0 0,-6 0,-6 4,0 4,0 0,2 0,2 8,0 8,0 0,-2 0,-2 4,0 4,0 0,6 0,6 -2,0 -2,0 0,2 0,2 -12,0 z m 0,-20 -8,0 0,-2 0,-2 2,0 2,0 0,-6 0,-6 4,0 4,0 0,6 0,6 2,0 2,0 0,2 0,2 -8,0 z"
         id="path3141"
         style="fill:#1447e0" />
      <path
         d="m 229.57143,448.93362 -12,0 0,-2 0,-2 -2,0 -2,0 0,-2 0,-2 -2,0 -2,0 0,-2 0,-2 -2,0 -2,0 0,-6 0,-6 2,0 2,0 0,-2 0,-2 2,0 2,0 0,-2 0,-2 2,0 2,0 0,-6 0,-6 -2,0 -2,0 0,-2 0,-2 2,0 2,0 0,-2 0,-2 2,0 2,0 0,-2 0,-2 8,0 8,0 0,2 0,2 2,0 2,0 0,2 0,2 2,0 2,0 0,2 0,2 -2,0 -2,0 0,6 0,6 2,0 2,0 0,2 0,2 2,0 2,0 0,2 0,2 2,0 2,0 0,6 0,6 -2,0 -2,0 0,2 0,2 -2,0 -2,0 0,2 0,2 -2,0 -2,0 0,2 0,2 -12,0 z m 0,-4 12,0 0,-2 0,-2 2,0 2,0 0,-2 0,-2 2,0 2,0 0,-6 0,-6 -2,0 -2,0 0,-2 0,-2 -2,0 -2,0 0,-2 0,-2 -2,0 -2,0 0,-6 0,-6 2,0 2,0 0,-2 0,-2 -2,0 -2,0 0,-2 0,-2 -8,0 -8,0 0,2 0,2 -2,0 -2,0 0,2 0,2 2,0 2,0 0,6 0,6 -2,0 -2,0 0,2 0,2 -2,0 -2,0 0,2 0,2 -2,0 -2,0 0,6 0,6 2,0 2,0 0,2 0,2 2,0 2,0 0,2 0,2 12,0 z m -6,-8 -2,0 0,-2 0,-2 -2,0 -2,0 0,-2 0,-2 2,0 2,0 0,2 0,2 2,0 2,0 0,2 0,2 -2,0 z m 8,0 -2,0 0,-2 0,-2 2,0 2,0 0,2 0,2 -2,0 z m 8,-4 -2,0 0,-2 0,-2 2,0 2,0 0,2 0,2 -2,0 z m -10,-12 -8,0 0,-2 0,-2 2,0 2,0 0,-6 0,-6 4,0 4,0 0,6 0,6 2,0 2,0 0,2 0,2 -8,0 z"
         id="path3139"
         style="fill:#0065cb" />
      <path
         d="m 229.57143,448.93362 -12,0 0,-2 0,-2 -2,0 -2,0 0,-2 0,-2 -2,0 -2,0 0,-2 0,-2 -2,0 -2,0 0,-6 0,-6 2,0 2,0 0,-2 0,-2 2,0 2,0 0,-2 0,-2 2,0 2,0 0,-6 0,-6 -2,0 -2,0 0,-2 0,-2 2,0 2,0 0,-2 0,-2 2,0 2,0 0,-2 0,-2 8,0 8,0 0,2 0,2 2,0 2,0 0,2 0,2 2,0 2,0 0,2 0,2 -2,0 -2,0 0,6 0,6 2,0 2,0 0,2 0,2 2,0 2,0 0,2 0,2 2,0 2,0 0,6 0,6 -2,0 -2,0 0,2 0,2 -2,0 -2,0 0,2 0,2 -2,0 -2,0 0,2 0,2 -12,0 z m 0,-4 12,0 0,-2 0,-2 2,0 2,0 0,-2 0,-2 2,0 2,0 0,-6 0,-6 -2,0 -2,0 0,-2 0,-2 -2,0 -2,0 0,-2 0,-2 -2,0 -2,0 0,-6 0,-6 2,0 2,0 0,-2 0,-2 -2,0 -2,0 0,-2 0,-2 -8,0 -8,0 0,2 0,2 -2,0 -2,0 0,2 0,2 2,0 2,0 0,6 0,6 -2,0 -2,0 0,2 0,2 -2,0 -2,0 0,2 0,2 -2,0 -2,0 0,6 0,6 2,0 2,0 0,2 0,2 2,0 2,0 0,2 0,2 12,0 z m 0,-24 -8,0 0,-2 0,-2 2,0 2,0 0,-6 0,-6 4,0 4,0 0,6 0,6 2,0 2,0 0,2 0,2 -8,0 z"
         id="path3137"
         style="fill:#000000" />
    </g>
  </g>
</svg>
