<?xml version="1.0"?>
<svg xmlns="http://www.w3.org/2000/svg" viewBox="0 0 24 24">
    <path d="M 16 2 L 16 4 L 20 4 L 20 8 L 22 8 L 22 2 L 16 2 z M 20 8 L 18 8 L 18 10 L 20 10 L 20 8 z M 18 10 L 16 10 L 16 12 L 18 12 L 18 10 z M 16 12 L 14 12 L 14 14 L 16 14 L 16 12 z M 14 14 L 12 14 L 12 16 L 14 16 L 14 14 z M 12 16 L 8 16 L 8 18 L 12 18 L 12 16 z M 12 18 L 12 20 L 10 20 L 10 22 L 14 22 L 14 18 L 12 18 z M 8 18 L 6 18 L 6 20 L 8 20 L 8 18 z M 6 20 L 4 20 L 4 18 L 2 18 L 2 22 L 6 22 L 6 20 z M 4 18 L 6 18 L 6 16 L 4 16 L 4 18 z M 6 16 L 8 16 L 8 12 L 6 12 L 6 16 z M 6 12 L 6 10 L 2 10 L 2 14 L 4 14 L 4 12 L 6 12 z M 8 12 L 10 12 L 10 10 L 8 10 L 8 12 z M 10 10 L 12 10 L 12 8 L 10 8 L 10 10 z M 12 8 L 14 8 L 14 6 L 12 6 L 12 8 z M 14 6 L 16 6 L 16 4 L 14 4 L 14 6 z"/>
</svg>
